<svg width="18" height="18" xmlns="http://www.w3.org/2000/svg"><path d="M9 0C4.037 0 0 4.037 0 9s4.037 9 9 9 9-4.037 9-9-4.037-9-9-9zm-.643 1.446v2.625H6.402c.093-.245.189-.485.294-.703.495-1.015 1.082-1.648 1.661-1.922zm1.286 0c.579.274 1.166.907 1.66 1.922.106.218.202.458.295.703H9.643V1.446zm-3.55.409a7.82 7.82 0 00-.548.95c-.191.392-.358.817-.51 1.266H3.068a7.696 7.696 0 013.027-2.216zm5.813 0a7.696 7.696 0 013.027 2.216h-1.969c-.15-.45-.318-.874-.509-1.265a7.82 7.82 0 00-.549-.951zm-9.71 3.502h2.478c-.21.93-.337 1.94-.375 3H1.313a7.667 7.667 0 01.883-3zm3.804 0h2.357v3H5.585c.042-1.079.19-2.093.415-3zm3.643 0H12c.225.907.373 1.921.415 3H9.643v-3zm3.683 0h2.478c.485.907.795 1.92.883 3h-2.986a16.345 16.345 0 00-.375-3zM1.313 9.643h2.986c.037 1.062.165 2.07.375 3H2.196a7.68 7.68 0 01-.883-3zm4.272 0h2.772v3H6a14.964 14.964 0 01-.415-3zm4.058 0h2.772a14.964 14.964 0 01-.415 3H9.643v-3zm4.058 0h2.986a7.68 7.68 0 01-.883 3h-2.478c.21-.93.338-1.938.375-3zM3.06 13.929h1.975c.15.448.318.868.509 1.259.167.343.354.667.555.964a7.696 7.696 0 01-3.04-2.223zm3.34 0h1.956v2.631c-.579-.275-1.166-.92-1.66-1.935a8.616 8.616 0 01-.295-.696zm3.242 0h1.955c-.093.245-.189.479-.294.696-.495 1.016-1.082 1.66-1.661 1.935V13.93zm3.321 0h1.976a7.696 7.696 0 01-3.04 2.223c.2-.297.388-.62.555-.964.19-.391.358-.81.51-1.26z" fill="white" fill-rule="nonzero"/></svg>