<?xml version="1.0" encoding="UTF-8"?>
<svg width="160px" height="79px" viewBox="0 0 160 79" version="1.1" xmlns="http://www.w3.org/2000/svg" xmlns:xlink="http://www.w3.org/1999/xlink">
    <title>Group 26</title>
    <defs>
        <polygon id="path-1" points="0 79 160 79 160 0 0 0"></polygon>
    </defs>
    <g id="UI" stroke="none" stroke-width="1" fill="none" fill-rule="evenodd">
        <g id="02-Home-" transform="translate(-637.000000, -25.000000)">
            <g id="Group-26" transform="translate(637.000000, 25.000000)">
                <path d="M10.0580038,51.3002708 C10.0580038,49.5263263 8.84480056,48.5749674 6.89879812,48.5749674 L3.89200488,48.5749674 L3.89200488,54.0773242 L6.97500435,54.0773242 C8.92039714,54.0773242 10.0580038,52.8942935 10.0580038,51.3520209 L10.0580038,51.3002708 Z M6.84819718,57.6005416 L3.89200488,57.6005416 L3.89200488,63 L0,63 L0,45 L7.22739941,45 C11.4480056,45 14,47.5459834 14,51.2232474 L14,51.2743957 C14,55.4402768 10.8157986,57.6005416 6.84819718,57.6005416 L6.84819718,57.6005416 Z" id="Fill-1" fill="#B48E59"></path>
                <path d="M30.6114921,51.1456223 C30.6114921,49.4487012 29.4708509,48.5749674 27.6112529,48.5749674 L23.8178882,48.5749674 L23.8178882,53.742754 L27.6854215,53.742754 C29.5456177,53.742754 30.6114921,52.7143717 30.6114921,51.1973724 L30.6114921,51.1456223 Z M30.5367254,63 L26.8181274,57.2400963 L23.8178882,57.2400963 L23.8178882,63 L20,63 L20,45 L27.933647,45 C32.0248824,45 34.4796236,47.2372881 34.4796236,50.9398255 L34.4796236,50.9915756 C34.4796236,53.8974025 32.9669431,55.7224952 30.7604275,56.5715575 L35,63 L30.5367254,63 Z" id="Fill-3" fill="#B48E59"></path>
                <mask id="mask-2" fill="white">
                    <use xlink:href="#path-1"></use>
                </mask>
                <g id="Clip-6"></g>
                <polygon id="Fill-5" fill="#B48E59" mask="url(#mask-2)" points="41 63 45 63 45 45 41 45"></polygon>
                <polygon id="Fill-7" fill="#B48E59" mask="url(#mask-2)" points="65.6303378 63 56.9101734 51.5572159 56.9101734 63 53 63 53 45 56.6526393 45 65.0898266 56.0829405 65.0898266 45 69 45 69 63"></polygon>
                <path d="M82.8918101,64 C77.7895209,64 74,59.8269765 74,54.5522012 L74,54.5 C74,49.2774258 77.7154274,45 83.0405945,45 C86.3096687,45 88.2665721,46.1545672 89.8763118,47.8342168 L87.4491541,50.7998578 C86.1118871,49.5138664 84.7495238,48.7265499 83.0154984,48.7265499 C80.0929903,48.7265499 77.9873025,51.2979184 77.9873025,54.4471847 L77.9873025,54.5 C77.9873025,57.6486521 80.0433955,60.2734501 83.0154984,60.2734501 C84.9969003,60.2734501 86.2110767,59.4333182 87.5728424,58.1215334 L90,60.7193096 C88.2169773,62.7404163 86.2355753,64 82.8918101,64" id="Fill-8" fill="#B48E59" mask="url(#mask-2)"></path>
                <polygon id="Fill-9" fill="#B48E59" mask="url(#mask-2)" points="96 63 100 63 100 45 96 45"></polygon>
                <path d="M118.058004,51.3002708 C118.058004,49.5263263 116.844801,48.5749674 114.899408,48.5749674 L111.892005,48.5749674 L111.892005,54.0773242 L114.975004,54.0773242 C116.921007,54.0773242 118.058004,52.8942935 118.058004,51.3520209 L118.058004,51.3002708 Z M114.848807,57.6005416 L111.892005,57.6005416 L111.892005,63 L108,63 L108,45 L115.227399,45 C119.448006,45 122,47.5459834 122,51.2232474 L122,51.2743957 C122,55.4402768 118.816408,57.6005416 114.848807,57.6005416 L114.848807,57.6005416 Z" id="Fill-10" fill="#B48E59" mask="url(#mask-2)"></path>
                <polygon id="Fill-11" fill="#B48E59" mask="url(#mask-2)" points="127 63 127 45 130.980241 45 130.980241 59.400361 140 59.400361 140 63"></polygon>
                <polygon id="Fill-12" fill="#B48E59" mask="url(#mask-2)" points="146 63 146 45 158.877614 45 158.877614 48.5226156 149.731601 48.5226156 149.731601 52.1746064 157.780257 52.1746064 157.780257 55.6966202 149.731601 55.6966202 149.731601 59.4773844 159 59.4773844 159 63"></polygon>
                <path d="M79.5,30.8299651 C71.5972478,30.8299651 65.167743,24.4014728 65.167743,16.4996955 C65.167743,8.59730912 71.5972478,2.16881679 79.5,2.16881679 C87.4033718,2.16881679 93.8328765,8.59730912 93.8328765,16.4996955 C93.8328765,24.4014728 87.4033718,30.8299651 79.5,30.8299651 M79.5,0 C70.4015507,0 63,7.40174963 63,16.5003045 C63,25.5982504 70.4015507,33 79.5,33 C88.5978298,33 96,25.5982504 96,16.5003045 C96,7.40174963 88.5978298,0 79.5,0" id="Fill-13" fill="#B48E59" mask="url(#mask-2)"></path>
                <path d="M79.499689,3 C72.0556388,3 66,9.05638332 66,16.5 C66,23.9436167 72.0556388,30 79.499689,30 C86.9431172,30 93,23.9436167 93,16.5 C93,9.05638332 86.9431172,3 79.499689,3" id="Fill-14" fill="#B48E59" mask="url(#mask-2)"></path>
                <path d="M82.9597485,8 L81.3850559,8 C80.8897996,8 80.4871723,8.42123805 80.4871723,8.94018262 C80.4871723,9.45848012 80.8897996,9.88101229 81.3850559,9.88101229 L82.889968,9.88101229 C84.9778252,9.88101229 86.1276596,10.8076066 86.1276596,12.4906176 C86.1276596,14.0875692 84.8147982,15.1189877 82.784371,15.1189877 L77.8966485,15.1189877 C77.4020098,15.1189877 77,15.5408728 77,16.0598174 C77,16.5781149 77.4020098,17 77.8966485,17 L82.7312637,17 C85.3538988,17 88,15.5771083 88,12.4000288 C88,9.72701129 86.021445,8 82.9597485,8" id="Fill-15" fill="#FEFEFE" mask="url(#mask-2)"></path>
                <path d="M75.136798,14.8996766 L74.1163415,14.9253399 L74.1157097,10.0987586 C74.1352974,10.0142574 74.388042,9.79956185 74.7058684,9.69816045 L78.1608878,9.68313802 C78.6316247,9.68251208 79,9.30820322 79,8.83186702 C79,8.37305699 78.6234105,8 78.1577285,8 L74.6900719,8.01502243 C74.6180396,8.01502243 74.5441118,8.02691519 74.5283153,8.03880794 C74.4821894,8.04068575 74.4354316,8.04444135 74.3930969,8.05383037 C73.4459363,8.26414438 72.4393808,9.04969225 72.4393808,10.0912473 L72.4646552,14.8996766 L71.7512835,14.8996766 C71.3367822,14.8996766 71,15.2339257 71,15.6445387 L71,15.7985186 C71,16.2091317 71.3367822,16.5427548 71.7512835,16.5427548 L72.4393808,16.5177174 L72.4393808,23.9375456 C72.4197931,24.0270543 72.1436695,24.2573982 71.8043598,24.3525403 C71.4738962,24.4451786 71.2514809,24.7324825 71.2514809,25.0692353 L71.2514809,25.2526341 C71.2514809,25.4804743 71.3551062,25.693918 71.5351868,25.837883 C71.6672459,25.942414 71.8327936,26 72.0008688,26 C72.0564726,26 72.1108127,25.9943666 72.1626254,25.9824738 C73.109786,25.7721598 74.1163415,24.986612 74.1163415,23.9450569 L74.0910671,16.5427548 L75.136798,16.5427548 C75.5512993,16.5427548 75.8880815,16.2091317 75.8880815,15.7985186 L75.8880815,15.6445387 C75.8880815,15.2339257 75.5512993,14.8996766 75.136798,14.8996766" id="Fill-16" fill="#FEFEFE" mask="url(#mask-2)"></path>
                <polygon id="Fill-17" fill="#FEFEFE" mask="url(#mask-2)" points="19.7723663 72.7987019 19.7723663 74.7667606 21.9264161 74.7667606 21.9264161 75.5648646 19.7723663 75.5648646 19.7723663 79 19 79 19 72 22 72 22 72.7987019"></polygon>
                <polygon id="Fill-18" fill="#FEFEFE" mask="url(#mask-2)" points="31 79 32 79 32 72 31 72"></polygon>
                <polygon id="Fill-19" fill="#FEFEFE" mask="url(#mask-2)" points="42 71 47.1453659 76.7788235 47.1453659 71.3513725 48 71.3513725 48 79 42.8546341 73.2218039 42.8546341 78.6981961 42 78.6981961"></polygon>
                <polygon id="Fill-20" fill="#FEFEFE" mask="url(#mask-2)" points="57 72 61 72 61 72.7987019 57.9279695 72.7987019 57.9279695 74.7571953 60.9109556 74.7571953 60.9109556 75.5558972 57.9279695 75.5558972 57.9279695 78.2012981 61 78.2012981 61 79 57 79"></polygon>
                <polygon id="Fill-21" fill="#FEFEFE" mask="url(#mask-2)" points="82.9750245 76.5600097 85 71 87.0243634 76.5600097 89.0303624 71.1597038 90 71.1597038 87.0243634 79 85 73.4696128 82.9750245 79 80 71.1597038 80.9690255 71.1597038"></polygon>
                <polygon id="Fill-22" fill="#FEFEFE" mask="url(#mask-2)" points="98 79 99 79 99 72 98 72"></polygon>
                <polygon id="Fill-23" fill="#FEFEFE" mask="url(#mask-2)" points="109 71 114.145282 76.7788235 114.145282 71.3513725 115 71.3513725 115 79 109.854132 73.2218039 109.854132 78.6981961 109 78.6981961"></polygon>
                <polygon id="Fill-24" fill="#FEFEFE" mask="url(#mask-2)" points="124 72 128 72 128 72.7987019 124.928606 72.7987019 124.928606 74.7571953 127.910956 74.7571953 127.910956 75.5558972 124.928606 75.5558972 124.928606 78.2012981 128 78.2012981 128 79 124 79"></polygon>
                <path d="M140.164244,73.416059 C139.927863,72.9979517 139.6241,72.7834494 139.143187,72.7834494 C138.636734,72.7834494 138.080288,73.1487915 138.080288,73.7366653 C138.080288,74.2625973 138.569352,74.5384678 138.966037,74.6984842 L139.421954,74.8860303 C140.324548,75.2599754 141,75.7853339 141,76.9071692 C141,78.1276526 140.105556,79 138.966037,79 C137.936829,79 137.134764,78.1993445 137,77.1210979 L137.801522,76.9427284 C137.79337,77.6820156 138.35036,78.2165506 139.033419,78.2165506 C139.717022,78.2165506 140.20663,77.6108972 140.20663,76.9071692 C140.20663,76.1862351 139.658334,75.8742319 139.109496,75.6339205 L138.670969,75.4377714 C137.94498,75.1085621 137.286918,74.6715281 137.286918,73.7366653 C137.286918,72.6503892 138.198207,72 139.160033,72 C139.869175,72 140.451162,72.3653421 140.79731,73.0157313 L140.164244,73.416059 Z" id="Fill-25" fill="#FEFEFE" mask="url(#mask-2)"></path>
            </g>
        </g>
    </g>
</svg>